<svg id="b1e4e80a-3784-4ec2-ad3e-5716a74fe948" data-name="Layer 1" xmlns="http://www.w3.org/2000/svg" viewBox="0 0 2251.5 473.1"><title>logo-firma-shop1</title><g id="be6e5b12-f665-429d-bafc-5cdf390879aa" data-name="bag"><path d="M87.7,132.5h240v352H87.7v-352Z" transform="translate(-23.7 -12.5)" fill="#29b1fc"/><path d="M295.7,180.5a16,16,0,1,1-16-16A16,16,0,0,1,295.7,180.5Z" transform="translate(-23.7 -12.5)" fill="#005b8e"/><path d="M151.7,180.5a16,16,0,1,1-16-16A16,16,0,0,1,151.7,180.5Z" transform="translate(-23.7 -12.5)" fill="#005b8e"/><path d="M87.7,277.4v207l-32-48-32,48v-352l32,48,32-48Z" transform="translate(-23.7 -12.5)" fill="#1f8fdb"/><path d="M55.7,436.5l32,48h-64Z" transform="translate(-23.7 -12.5)" fill="#0c73ba"/><path d="M87.7,132.5l-32,48-32-48Z" transform="translate(-23.7 -12.5)" fill="#0c73ba"/><path d="M143.9,317l79.2-79.2,22.6,22.6-79.2,79.2Z" transform="translate(-23.7 -12.5)" fill="#5aaae7"/><path d="M324.9,283.1l22.6-22.6,79.1,79.2L404,362.3Z" transform="translate(-23.7 -12.5)" fill="#5aaae7"/><path d="M228.8,232.2l-5.7,5.7L143.9,317l-5.7,5.7L93,277.4l90.5-90.5Z" transform="translate(-23.7 -12.5)" fill="#1e81ce"/><path d="M483.3,305.8,438.1,351l-11.4-11.3-79.1-79.2-11.4-11.3,45.3-45.3Z" transform="translate(-23.7 -12.5)" fill="#1e81ce"/><path d="M262,323.4l-55.8,55.9-39.6-39.6,79.2-79.2h33.9l65,65a16,16,0,0,1-22.6,22.6l-33.9-33.9A32,32,0,0,1,262,323.4Z" transform="translate(-23.7 -12.5)" fill="#ffc477"/><path d="M339,455.7a15.9,15.9,0,0,1,4.7,11.3,16.1,16.1,0,0,1-4.7,11.3,15.9,15.9,0,0,1-11.3,4.7,16.1,16.1,0,0,1-11.3-4.7L305.1,467a15.4,15.4,0,0,1-2.5-3.2,16.4,16.4,0,0,1-2.2-8.1,16,16,0,0,1,27.2-11.4Z" transform="translate(-23.7 -12.5)" fill="#ffc477"/><path d="M327.7,421.7a15.9,15.9,0,0,1,22.6,0l11.3,11.4a15.9,15.9,0,0,1,4.7,11.3,16.3,16.3,0,0,1-4.7,11.4,15.9,15.9,0,0,1-22.6,0l-11.3-11.4a16.1,16.1,0,0,1,0-22.7Z" transform="translate(-23.7 -12.5)" fill="#ffc477"/><path d="M384.3,410.4a16.1,16.1,0,0,1,0,22.6,15.9,15.9,0,0,1-22.6,0l-11.3-11.4a15.6,15.6,0,0,1-4.6-11.3,16,16,0,0,1,27.3-11.4Z" transform="translate(-23.7 -12.5)" fill="#ffc477"/><path d="M406.9,387.8a16,16,0,1,1-22.6,22.6L373,399a15.9,15.9,0,0,1-4.7-11.3,16.1,16.1,0,0,1,4.7-11.3,15.7,15.7,0,0,1,19.4-2.4,12.7,12.7,0,0,1,3.3,2.4Z" transform="translate(-23.7 -12.5)" fill="#ffc477"/><path d="M324.9,283.1l79.2,79.2-11.8,11.8a15.9,15.9,0,0,0-24.1,13.7,16.1,16.1,0,0,0,4.7,11.3,15.9,15.9,0,0,0-17.4-3.4,16.2,16.2,0,0,0-9.9,14.8,16.4,16.4,0,0,0,4.6,11.3,16,16,0,0,0-22.6,22.6,16.2,16.2,0,0,0-21.2-1.4,16,16,0,0,0-4,20.8l-6,6a16.1,16.1,0,0,1-22.6,0,15.9,15.9,0,0,1,0-22.6,15.9,15.9,0,0,1-11.3,4.7,16.3,16.3,0,0,1-11.4-4.7,15.9,15.9,0,0,1-4.7-11.3,16.1,16.1,0,0,1,4.7-11.3,16,16,0,0,1-22.6-22.7,16,16,0,1,1-22.7-22.6l55.8-55.9a31.8,31.8,0,0,0,26.2-9.1l33.9,33.9a16,16,0,0,0,22.6-22.6L305.7,287Z" transform="translate(-23.7 -12.5)" fill="#ffdaaa"/><path d="M287.7,164.5h-16v-72a64,64,0,0,0-128,0v72h-16v-72a80,80,0,0,1,160,0Z" transform="translate(-23.7 -12.5)" fill="#0c73ba"/><path d="M207.7,132.5h-16v-40a64,64,0,1,0-128,0v40h-16v-40a80,80,0,1,1,160,0Z" transform="translate(-23.7 -12.5)" fill="#0c73ba"/><path d="M135.7,204.5a24,24,0,1,1,24-24A23.9,23.9,0,0,1,135.7,204.5Zm0-32a8,8,0,1,0,8,8A8,8,0,0,0,135.7,172.5Z" transform="translate(-23.7 -12.5)" fill="#0c73ba"/><path d="M279.7,204.5a24,24,0,1,1,24-24A23.9,23.9,0,0,1,279.7,204.5Zm0-32a8,8,0,1,0,8,8A8,8,0,0,0,279.7,172.5Z" transform="translate(-23.7 -12.5)" fill="#0c73ba"/><path d="M447.7,212.5h-16V76.5h-120v-16h128a8,8,0,0,1,8,8Z" transform="translate(-23.7 -12.5)" fill="#1fce00"/><path d="M330,98.1l-24-24a8,8,0,0,1,0-11.3l24-24,11.3,11.3L323,68.5l18.3,18.3Z" transform="translate(-23.7 -12.5)" fill="#1fce00"/><path d="M463.7,196.5h16v16h-16Z" transform="translate(-23.7 -12.5)" fill="#1fce00"/><path d="M463.7,164.5h16v16h-16Z" transform="translate(-23.7 -12.5)" fill="#1fce00"/><path d="M463.7,132.5h16v16h-16Z" transform="translate(-23.7 -12.5)" fill="#1fce00"/></g><g style="isolation:isolate"><path d="M607.2,130.8h-4.3c-17,0-30.2,5.9-39.6,17.6s-14.1,32.5-14.1,62.4c0,9.6.9,16.2,2.7,19.9s2.7,5.9,2.7,6.4c-13.9,0-24.3-2.9-31.1-8.7s-10.2-15.4-10.2-28.8a95.4,95.4,0,0,1,13.5-50q13.5-22.6,43.1-36.5t75.1-14c9.3,0,22.1,1.2,38.3,3.5,1.6.3,7.7,1.1,18.4,2.3a269.2,269.2,0,0,0,32.6,2,213.8,213.8,0,0,0,56.1-7.4c-3.1,17-8.4,31.3-15.9,42.7s-18.1,17.2-32.1,17.2a93,93,0,0,1-24.7-2.9,253.9,253.9,0,0,1-25.9-8.7c-10.3-3.8-20.5-7.2-30.5-10l-16.6,77.3h48.7l-6.2,28.6H638.5L607.2,389H551.5Zm88.3,248.9q-11.4-11.6-11.4-34.8c0-6.4,1-14.8,3.1-25.1l26.3-124h55.6L741.3,327.2a44.6,44.6,0,0,0-1.6,12.3c0,5.2,1.3,8.9,3.7,11.1s6.5,3.2,12.2,3.2c7.5,0,14.4-3.1,20.9-9.4s11-14.5,13.9-24.6h16.2c-9.5,27.9-21.8,46.7-36.7,56.6s-29.8,14.9-44.5,14.9C713.1,391.3,703.1,387.5,695.5,379.7Z" transform="translate(-23.7 -12.5)" fill="#0c73ba"/><path d="M816.6,195.8h55.7l-5,23.9A163.8,163.8,0,0,1,891,201.9a45.3,45.3,0,0,1,23-6.1c8.3,0,14.8,2.8,19.6,8.5a30.9,30.9,0,0,1,7.1,20.4,29.4,29.4,0,0,1-7.3,19.8c-4.9,5.6-11.8,8.5-20.5,8.5-5.7,0-9.5-1.4-11.4-4.1s-3.4-6.6-4.5-11.8a30,30,0,0,0-2.3-7.3,4.2,4.2,0,0,0-4.2-2.3,28.2,28.2,0,0,0-13.8,3.2c-3.7,2.2-8.5,6-14.5,11.4L831.3,389H775.7Z" transform="translate(-23.7 -12.5)" fill="#0c73ba"/><path d="M1136.1,378.8c-7.4-8.4-11-18.8-11-31.1a98.2,98.2,0,0,1,1.9-18.4c1.3-6.8,2.6-13.5,4-19.9s2.4-10.6,2.9-12.4c2.1-9,4-17.9,5.8-26.6s2.7-15.9,2.7-21.3c0-13.1-4.6-19.7-13.9-19.7-6.7,0-12.6,3.3-17.7,9.8s-9.3,15.2-12.4,25.7L1072.1,389h-55.6l28.2-133.3a43.7,43.7,0,0,0,1.1-9.7c0-11.3-3.8-17-11.6-17s-13.4,3.3-18.7,9.9-9.5,15.2-12.6,26L976.6,389H921l41-193.2h55.6l-4.2,20.1q19.6-22.1,47.1-22.1,34.1,0,39.8,33.3,21.3-32.8,53.7-32.9c13.2,0,23.6,3.6,31.4,10.8s11.5,18.2,11.5,32.9a129.2,129.2,0,0,1-2.7,24.9c-1.8,9.2-4.3,20.3-7.7,33.4-2.1,8-3.9,15.8-5.6,23.4a87,87,0,0,0-2.5,18c0,5.2,1.2,9.2,3.5,12s6.3,4.2,12,4.2c7.7,0,13.9-2.7,18.5-8.3s9.3-14.1,13.9-25.7h16.3q-14.4,42.6-33.1,57c-12.5,9.7-25.4,14.5-38.8,14.5C1154.9,391.3,1143.4,387.1,1136.1,378.8Z" transform="translate(-23.7 -12.5)" fill="#0c73ba"/><path d="M1236,376.3q-14.7-15.2-14.7-47.2,0-28.7,11.4-60.1t34-53.3q22.6-21.9,53.9-21.9c10.6,0,18.4,1.8,23.6,5.4s7.7,8.4,7.7,14.3v2.7l4.3-20.4h55.6L1384,327.2a48.8,48.8,0,0,0-1.5,12.3q0,7.8,3.6,11.1c2.5,2.1,6.5,3.2,12.2,3.2a19.9,19.9,0,0,0,8.5-1.5q-8.5,21.6-16.2,30.3c-5.2,5.8-12.7,8.7-22.4,8.7s-19.2-3.1-25.7-9.4-10.7-15.2-12.2-26.5q-23.5,35.9-57.6,35.9C1258,391.3,1245.8,386.3,1236,376.3Zm80.9-31.5c6.4-6.1,10.7-14.4,13-25l18.5-87.3a15.4,15.4,0,0,0-3.8-9.9q-3.9-4.8-12-4.8c-10.3,0-19.6,6-27.8,18s-14.7,26.4-19.3,43.2-7,31.8-7,44.7,1.9,21.1,5.6,24.7a18.9,18.9,0,0,0,13.7,5.4C1304.3,353.8,1310.6,350.8,1316.9,344.8Z" transform="translate(-23.7 -12.5)" fill="#0c73ba"/><path d="M1421.1,272.7h77.3l-6.6,30.5h-77.7Z" transform="translate(-23.7 -12.5)" fill="#0c73ba"/><path d="M1570.7,387.5c-12.4-5.7-21.9-13.6-28.6-23.8s-10.1-22-10.1-35.4a66.4,66.4,0,0,1,7.2-30.9,56.6,56.6,0,0,1,19.3-22,47.5,47.5,0,0,1,26.9-8.1c9,0,16.6,2.2,22.8,6.7a29.8,29.8,0,0,1,11.6,18.8c-13.4,0-24.1,3.5-32.1,10.6s-12,16.7-12,28.8,3.3,20,10,26.7,15.6,10,26.7,10c13.7,0,24.9-4.6,33.8-13.7s13.4-20.7,13.4-34.6a64.3,64.3,0,0,0-10.1-34.4c-6.7-10.8-16.7-24-30.1-39.4s-24.4-29.7-31.5-41.2a70,70,0,0,1-10.7-37.7,61.4,61.4,0,0,1,11.3-36.1c7.4-10.7,17.7-19.1,30.9-25.3s27.9-9.3,44.4-9.3q31.4,0,50.1,14.7c12.5,9.8,18.7,22.9,18.7,39.4,0,10.8-2.7,19.6-8.1,26.3s-12.5,10-21.3,10-17.6-3.9-23.5-11.9a38.2,38.2,0,0,0,11.6-14.3,43.2,43.2,0,0,0,4.2-18.6c0-8.2-2.4-14.8-7.3-19.7s-11.6-7.3-20.1-7.3c-10.3,0-18.8,3.6-25.3,11s-9.9,16.7-9.9,28a51.2,51.2,0,0,0,8.9,28.8q8.9,13.3,27.8,34.2c10.3,11.1,18.6,20.6,24.9,28.6a120.4,120.4,0,0,1,16.3,27.6,84.6,84.6,0,0,1,6.7,33.8,77.5,77.5,0,0,1-13.7,44.9c-9.1,13.4-21.6,23.9-37.5,31.7s-33.4,11.6-52.7,11.6C1597.3,396,1583,393.1,1570.7,387.5Z" transform="translate(-23.7 -12.5)" fill="#0c73ba"/><path d="M1844.1,378.8c-7.3-8.4-11-18.8-11-31.1a98.2,98.2,0,0,1,1.9-18.4c1.3-6.8,2.7-13.5,4.1-19.9s2.4-10.6,2.9-12.4c2-9,4-17.9,5.8-26.6s2.7-15.9,2.7-21.3c0-13.1-4.7-19.7-13.9-19.7-6.7,0-12.7,3.3-17.8,9.8s-9.3,15.2-12.4,25.7L1780.1,389h-55.6l56-262.8,57.2-7.7-20.8,97.4q19.2-21.7,45.2-21.7c13.1,0,23.6,3.6,31.3,10.8s11.6,18.2,11.6,32.9a129.2,129.2,0,0,1-2.7,24.9c-1.8,9.2-4.4,20.3-7.8,33.4-2,8-3.9,15.8-5.6,23.4s-2.5,13.6-2.5,18,1.2,9.2,3.5,12,6.3,4.2,12,4.2c7.7,0,13.9-2.7,18.5-8.3s9.3-14.1,14-25.7h16.2c-9.5,28.4-20.6,47.4-33.1,57s-25.4,14.5-38.8,14.5C1863,391.3,1851.5,387.1,1844.1,378.8Z" transform="translate(-23.7 -12.5)" fill="#0c73ba"/><path d="M1945.6,375.9q-16.6-14.7-16.7-46.4c0-17.5,3.7-37,10.9-58.4a138.2,138.2,0,0,1,34.7-55.4q24-23.4,60.3-23.4,49.5,0,49.5,61.8v.4a14.2,14.2,0,0,0,4.3.4c8.5,0,18.3-2.3,29.3-6.8a147.8,147.8,0,0,0,30.2-16.4l3.5,10.4c-7.5,8-17.2,14.8-29.2,20.3a148.6,148.6,0,0,1-39.3,11.8q-3,35.3-15.8,61.5c-8.5,17.5-19.5,31-32.8,40.6s-28,14.3-43.7,14.3C1971.7,390.6,1956.6,385.7,1945.6,375.9Zm79.2-30.8c6.2-7,11.6-16.7,16.2-28.9a187.4,187.4,0,0,0,10.1-40.8c-7-1.6-10.5-7-10.5-16.3s4-17.5,12-20.8c-.5-8.5-1.8-14.4-3.8-17.6s-5.7-4.8-10.9-4.8c-8.5,0-16.7,6.1-24.7,18.5s-14.4,27.2-19.3,44.5-7.4,32.4-7.4,45.6,1.4,20.6,4.3,24.9,8,6.4,15.4,6.4S2018.6,352.2,2024.8,345.1Z" transform="translate(-23.7 -12.5)" fill="#0c73ba"/><path d="M2133.4,181.5H2189l-6.1,28.9a67.3,67.3,0,0,1,45.2-16.6c14.4,0,25.9,4.8,34.4,14.3s12.7,25.2,12.7,46.8a220.1,220.1,0,0,1-8.9,61.6c-5.9,20.8-15.9,38.4-30.1,53s-32.9,21.8-56,21.8c-16.5,0-27.5-4.6-32.9-13.9l-20.1,94.3-58.4,13.9Zm65.5,158.8c8.1-11.6,14-25.4,17.8-41.5a202.7,202.7,0,0,0,5.6-45.1c0-21.3-6.5-32-19.3-32-4.7,0-9.4,1.6-14.1,5a44.9,44.9,0,0,0-12.6,13.9l-22.8,108.2c2,5.9,6.9,8.9,14.7,8.9C2180.5,357.7,2190.8,351.9,2198.9,340.3Z" transform="translate(-23.7 -12.5)" fill="#0c73ba"/></g></svg>