<?xml version="1.0" encoding="utf-8"?>
<!-- Generator: Adobe Illustrator 23.0.2, SVG Export Plug-In . SVG Version: 6.00 Build 0)  -->
<svg version="1.1" id="Layer_1" xmlns="http://www.w3.org/2000/svg" xmlns:xlink="http://www.w3.org/1999/xlink" x="0px" y="0px"
	 viewBox="0 0 2301.2 503.1" style="enable-background:new 0 0 2301.2 503.1;" xml:space="preserve">
<style type="text/css">
	.st0{fill:#29B1FC;}
	.st1{fill:#005B8E;}
	.st2{fill:#1F8FDB;}
	.st3{fill:#0C73BA;}
	.st4{fill:#5AAAE7;}
	.st5{fill:#1E81CE;}
	.st6{fill:#FFC477;}
	.st7{fill:#FFDAAA;}
	.st8{fill:#1FCE00;}
	.st9{font-family:'Lobster-Regular';}
	.st10{font-size:386.4875px;}
</style>
<g id="bag">
	<path class="st0" d="M87.7,132.5h240v352h-240V132.5z"/>
	<path class="st1" d="M295.7,180.5c0,8.8-7.2,16-16,16s-16-7.2-16-16s7.2-16,16-16S295.7,171.6,295.7,180.5z"/>
	<path class="st1" d="M151.7,180.5c0,8.8-7.2,16-16,16s-16-7.2-16-16s7.2-16,16-16S151.7,171.6,151.7,180.5z"/>
	<path class="st2" d="M87.7,277.4v207l-32-48l-32,48v-352l32,48l32-48V277.4z"/>
	<path class="st3" d="M55.7,436.5l32,48h-64L55.7,436.5z"/>
	<path class="st3" d="M87.7,132.5l-32,48l-32-48H87.7z"/>
	<path class="st4" d="M143.9,317l79.2-79.2l22.6,22.6l-79.2,79.2L143.9,317z"/>
	<path class="st4" d="M324.9,283.1l22.6-22.6l79.1,79.2l-22.6,22.6L324.9,283.1z"/>
	<path class="st5" d="M228.8,232.2l-5.7,5.7L143.9,317l-5.7,5.7L93,277.4l90.5-90.5L228.8,232.2z"/>
	<path class="st5" d="M483.3,305.8L438.1,351l-11.4-11.3l-79.1-79.2l-11.4-11.3l45.3-45.3L483.3,305.8z"/>
	<path class="st6" d="M262,323.4l-55.8,55.9l-39.6-39.6l79.2-79.2h33.9l65,65c6.3,6.3,6.3,16.4,0,22.6c-6.2,6.3-16.4,6.3-22.6,0
		l-33.9-33.9C281.3,321.1,271.6,324.5,262,323.4z"/>
	<path class="st6" d="M339,455.7c3,3,4.7,7,4.7,11.3c0,4.2-1.7,8.3-4.7,11.3c-3,3-7,4.7-11.3,4.7c-4.2,0-8.3-1.7-11.3-4.7L305.1,467
		c-1-1-1.8-2-2.5-3.2c-1.4-2.5-2.2-5.2-2.2-8.1c0-6.5,3.9-12.3,9.8-14.8c6-2.5,12.8-1.1,17.4,3.4L339,455.7z"/>
	<path class="st6" d="M327.7,421.7c3-3,7.1-4.7,11.3-4.7c4.2,0,8.3,1.7,11.3,4.7l11.3,11.4c3,3,4.7,7,4.7,11.3
		c0,4.3-1.7,8.3-4.7,11.4c-3,3-7.1,4.7-11.3,4.7s-8.3-1.7-11.3-4.7l-11.3-11.4c-3-3-4.7-7.1-4.7-11.3
		C323,428.7,324.7,424.7,327.7,421.7z"/>
	<path class="st6" d="M384.3,410.4c6.2,6.2,6.2,16.4,0,22.6c-6.3,6.3-16.4,6.3-22.6,0l-11.3-11.4c-3-3-4.7-7.1-4.6-11.3
		c0-6.5,3.9-12.3,9.9-14.8s12.8-1.1,17.4,3.4L384.3,410.4z"/>
	<path class="st6" d="M406.9,387.8c6.2,6.2,6.2,16.4,0,22.6c-6.3,6.2-16.4,6.2-22.6,0L373,399c-3-3-4.7-7-4.7-11.3
		c0-4.2,1.7-8.3,4.7-11.3c5.1-5.2,13.1-6.2,19.4-2.4c1.2,0.6,2.3,1.4,3.3,2.4L406.9,387.8z"/>
	<path class="st7" d="M324.9,283.1l79.2,79.2l-11.8,11.8c-6.2-3.8-14.3-2.8-19.4,2.4c-3,3-4.7,7-4.7,11.3c0,4.2,1.7,8.3,4.7,11.3
		c-4.6-4.6-11.5-5.9-17.4-3.4s-9.9,8.3-9.9,14.8c0,4.2,1.7,8.3,4.6,11.3c-6.2-6.2-16.4-6.2-22.6,0c-6.2,6.3-6.2,16.4,0,22.6
		c-5.7-5.7-14.8-6.3-21.2-1.4s-8.1,13.9-4,20.8l-6,6c-6.3,6.2-16.4,6.2-22.6,0c-6.3-6.3-6.3-16.4,0-22.6c-3,3-7,4.7-11.3,4.7
		c-4.3,0-8.3-1.7-11.4-4.7c-3-3-4.7-7-4.7-11.3c0-4.2,1.7-8.3,4.7-11.3c-6.3,5.7-16,5.5-22.1-0.6c-6-6-6.2-15.8-0.5-22.1
		c-3,3-7.1,4.6-11.4,4.6c-4.2,0-8.3-1.6-11.3-4.6c-3-3-4.7-7.1-4.7-11.3s1.7-8.3,4.7-11.3l55.8-55.9c9.7,1.1,19.3-2.2,26.2-9.1
		l33.9,33.9c6.3,6.3,16.4,6.3,22.6,0c6.3-6.2,6.3-16.4,0-22.6l-38.6-38.6L324.9,283.1z"/>
	<path class="st3" d="M287.7,164.5h-16v-72c0-35.3-28.7-64-64-64s-64,28.7-64,64v72h-16v-72c0-44.2,35.8-80,80-80s80,35.8,80,80
		V164.5z"/>
	<path class="st3" d="M207.7,132.5h-16v-40c0-35.3-28.7-64-64-64s-64,28.7-64,64v40h-16v-40c0-44.2,35.8-80,80-80s80,35.8,80,80
		V132.5z"/>
	<path class="st3" d="M135.7,204.5c-13.3,0-24-10.7-24-24s10.7-24,24-24s24,10.7,24,24S148.9,204.5,135.7,204.5z M135.7,172.5
		c-4.4,0-8,3.6-8,8s3.6,8,8,8s8-3.6,8-8S140.1,172.5,135.7,172.5z"/>
	<path class="st3" d="M279.7,204.5c-13.3,0-24-10.7-24-24s10.7-24,24-24s24,10.7,24,24S292.9,204.5,279.7,204.5z M279.7,172.5
		c-4.4,0-8,3.6-8,8s3.6,8,8,8s8-3.6,8-8S284.1,172.5,279.7,172.5z"/>
	<g>
		<path class="st8" d="M447.7,212.5h-16v-136h-120v-16h128c4.4,0,8,3.6,8,8V212.5z"/>
		<path class="st8" d="M330,98.1l-24-24c-3.1-3.1-3.1-8.2,0-11.3l24-24l11.3,11.3L323,68.5l18.3,18.3L330,98.1z"/>
		<path class="st8" d="M463.7,196.5h16v16h-16V196.5z"/>
		<path class="st8" d="M463.7,164.5h16v16h-16V164.5z"/>
		<path class="st8" d="M463.7,132.5h16v16h-16V132.5z"/>
	</g>
</g>
<text transform="matrix(1 0 0 1 509.774 389.0062)" class="st3 st9 st10">Firma-Shop</text>
</svg>
