<?xml version="1.0" encoding="utf-8"?>
<!-- Generator: Adobe Illustrator 23.0.3, SVG Export Plug-In . SVG Version: 6.00 Build 0)  -->
<svg version="1.1" id="Layer_1" xmlns="http://www.w3.org/2000/svg" xmlns:xlink="http://www.w3.org/1999/xlink" x="0px" y="0px"
	 viewBox="0 0 2301.2 503.1" style="enable-background:new 0 0 2301.2 503.1;" xml:space="preserve">
<style type="text/css">
	.st0{fill:#29B1FC;}
	.st1{fill:#005B8E;}
	.st2{fill:#1F8FDB;}
	.st3{fill:#0C73BA;}
	.st4{fill:#5AAAE7;}
	.st5{fill:#1E81CE;}
	.st6{fill:#FFC477;}
	.st7{fill:#FFDAAA;}
	.st8{fill:#1FCE00;}
	.st9{enable-background:new    ;}
	.st10{fill:#FFFFFF;}
</style>
<g id="bag">
	<path class="st0" d="M87.7,132.5h240v352h-240L87.7,132.5L87.7,132.5z"/>
	<path class="st1" d="M295.7,180.5c0,8.8-7.2,16-16,16s-16-7.2-16-16s7.2-16,16-16S295.7,171.6,295.7,180.5z"/>
	<path class="st1" d="M151.7,180.5c0,8.8-7.2,16-16,16s-16-7.2-16-16s7.2-16,16-16S151.7,171.6,151.7,180.5z"/>
	<path class="st2" d="M87.7,277.4v207l-32-48l-32,48v-352l32,48l32-48V277.4z"/>
	<path class="st3" d="M55.7,436.5l32,48h-64L55.7,436.5z"/>
	<path class="st3" d="M87.7,132.5l-32,48l-32-48H87.7z"/>
	<path class="st4" d="M143.9,317l79.2-79.2l22.6,22.6l-79.2,79.2L143.9,317z"/>
	<path class="st4" d="M324.9,283.1l22.6-22.6l79.1,79.2L404,362.3L324.9,283.1z"/>
	<path class="st5" d="M228.8,232.2l-5.7,5.7L143.9,317l-5.7,5.7L93,277.4l90.5-90.5L228.8,232.2z"/>
	<path class="st5" d="M483.3,305.8L438.1,351l-11.4-11.3l-79.1-79.2l-11.4-11.3l45.3-45.3L483.3,305.8z"/>
	<path class="st6" d="M262,323.4l-55.8,55.9l-39.6-39.6l79.2-79.2h33.9l65,65c6.3,6.3,6.3,16.4,0,22.6c-6.2,6.3-16.4,6.3-22.6,0
		l-33.9-33.9C281.3,321.1,271.6,324.5,262,323.4z"/>
	<path class="st6" d="M339,455.7c3,3,4.7,7,4.7,11.3c0,4.2-1.7,8.3-4.7,11.3s-7,4.7-11.3,4.7c-4.2,0-8.3-1.7-11.3-4.7L305.1,467
		c-1-1-1.8-2-2.5-3.2c-1.4-2.5-2.2-5.2-2.2-8.1c0-6.5,3.9-12.3,9.8-14.8c6-2.5,12.8-1.1,17.4,3.4L339,455.7z"/>
	<path class="st6" d="M327.7,421.7c3-3,7.1-4.7,11.3-4.7c4.2,0,8.3,1.7,11.3,4.7l11.3,11.4c3,3,4.7,7,4.7,11.3s-1.7,8.3-4.7,11.4
		c-3,3-7.1,4.7-11.3,4.7s-8.3-1.7-11.3-4.7l-11.3-11.4c-3-3-4.7-7.1-4.7-11.3C323,428.7,324.7,424.7,327.7,421.7z"/>
	<path class="st6" d="M384.3,410.4c6.2,6.2,6.2,16.4,0,22.6c-6.3,6.3-16.4,6.3-22.6,0l-11.3-11.4c-3-3-4.7-7.1-4.6-11.3
		c0-6.5,3.9-12.3,9.9-14.8s12.8-1.1,17.4,3.4L384.3,410.4z"/>
	<path class="st6" d="M406.9,387.8c6.2,6.2,6.2,16.4,0,22.6c-6.3,6.2-16.4,6.2-22.6,0L373,399c-3-3-4.7-7-4.7-11.3
		c0-4.2,1.7-8.3,4.7-11.3c5.1-5.2,13.1-6.2,19.4-2.4c1.2,0.6,2.3,1.4,3.3,2.4L406.9,387.8z"/>
	<path class="st7" d="M324.9,283.1l79.2,79.2l-11.8,11.8c-6.2-3.8-14.3-2.8-19.4,2.4c-3,3-4.7,7-4.7,11.3c0,4.2,1.7,8.3,4.7,11.3
		c-4.6-4.6-11.5-5.9-17.4-3.4s-9.9,8.3-9.9,14.8c0,4.2,1.7,8.3,4.6,11.3c-6.2-6.2-16.4-6.2-22.6,0c-6.2,6.3-6.2,16.4,0,22.6
		c-5.7-5.7-14.8-6.3-21.2-1.4s-8.1,13.9-4,20.8l-6,6c-6.3,6.2-16.4,6.2-22.6,0c-6.3-6.3-6.3-16.4,0-22.6c-3,3-7,4.7-11.3,4.7
		s-8.3-1.7-11.4-4.7c-3-3-4.7-7-4.7-11.3c0-4.2,1.7-8.3,4.7-11.3c-6.3,5.7-16,5.5-22.1-0.6c-6-6-6.2-15.8-0.5-22.1
		c-3,3-7.1,4.6-11.4,4.6c-4.2,0-8.3-1.6-11.3-4.6s-4.7-7.1-4.7-11.3s1.7-8.3,4.7-11.3l55.8-55.9c9.7,1.1,19.3-2.2,26.2-9.1
		l33.9,33.9c6.3,6.3,16.4,6.3,22.6,0c6.3-6.2,6.3-16.4,0-22.6L305.7,287L324.9,283.1z"/>
	<path class="st3" d="M287.7,164.5h-16v-72c0-35.3-28.7-64-64-64s-64,28.7-64,64v72h-16v-72c0-44.2,35.8-80,80-80s80,35.8,80,80
		V164.5z"/>
	<path class="st3" d="M207.7,132.5h-16v-40c0-35.3-28.7-64-64-64s-64,28.7-64,64v40h-16v-40c0-44.2,35.8-80,80-80s80,35.8,80,80
		V132.5z"/>
	<path class="st3" d="M135.7,204.5c-13.3,0-24-10.7-24-24s10.7-24,24-24s24,10.7,24,24S148.9,204.5,135.7,204.5z M135.7,172.5
		c-4.4,0-8,3.6-8,8s3.6,8,8,8s8-3.6,8-8S140.1,172.5,135.7,172.5z"/>
	<path class="st3" d="M279.7,204.5c-13.3,0-24-10.7-24-24s10.7-24,24-24s24,10.7,24,24S292.9,204.5,279.7,204.5z M279.7,172.5
		c-4.4,0-8,3.6-8,8s3.6,8,8,8s8-3.6,8-8S284.1,172.5,279.7,172.5z"/>
	<g>
		<path class="st8" d="M447.7,212.5h-16v-136h-120v-16h128c4.4,0,8,3.6,8,8V212.5z"/>
		<path class="st8" d="M330,98.1l-24-24c-3.1-3.1-3.1-8.2,0-11.3l24-24l11.3,11.3L323,68.5l18.3,18.3L330,98.1z"/>
		<path class="st8" d="M463.7,196.5h16v16h-16V196.5z"/>
		<path class="st8" d="M463.7,164.5h16v16h-16V164.5z"/>
		<path class="st8" d="M463.7,132.5h16v16h-16V132.5z"/>
	</g>
</g>
<g class="st9">
	<path class="st10" d="M607.2,130.8h-4.3c-17,0-30.2,5.9-39.6,17.6c-9.4,11.7-14.1,32.5-14.1,62.4c0,9.5,0.9,16.2,2.7,19.9
		c1.8,3.7,2.7,5.9,2.7,6.4c-13.9,0-24.3-2.9-31.1-8.7c-6.8-5.8-10.2-15.4-10.2-28.8c0-18.3,4.5-35,13.5-50
		c9-15.1,23.4-27.2,43.1-36.5c19.7-9.3,44.8-13.9,75.2-13.9c9.3,0,22,1.2,38.3,3.5c1.5,0.3,7.7,1,18.4,2.3
		c10.7,1.3,21.6,1.9,32.7,1.9c19.3,0,38-2.4,56-7.3c-3.1,17-8.4,31.2-15.8,42.7c-7.5,11.5-18.2,17.2-32.1,17.2
		c-9.3,0-17.5-1-24.7-2.9c-7.2-1.9-15.8-4.8-25.9-8.7c-10.3-3.9-20.5-7.2-30.5-10l-16.6,77.3h48.7l-6.2,28.6h-48.7L607.2,389h-55.7
		L607.2,130.8z M695.5,379.7c-7.6-7.7-11.4-19.3-11.4-34.8c0-6.4,1-14.8,3.1-25.1l26.3-124.1h55.7l-27.8,131.4
		c-1,3.9-1.5,8-1.5,12.4c0,5.2,1.2,8.8,3.7,11c2.4,2.2,6.5,3.3,12.2,3.3c7.5,0,14.4-3.2,20.9-9.5c6.4-6.3,11.1-14.5,13.9-24.5h16.2
		c-9.5,27.8-21.8,46.7-36.7,56.6c-14.9,9.9-29.8,14.9-44.4,14.9C713.1,391.3,703.1,387.5,695.5,379.7z"/>
	<path class="st10" d="M816.6,195.8h55.7l-5,24c8.8-7.7,16.7-13.7,23.8-17.8c7.1-4.1,14.7-6.2,23-6.2c8.2,0,14.7,2.8,19.5,8.5
		c4.8,5.7,7.2,12.5,7.2,20.5c0,7.5-2.5,14-7.3,19.7c-4.9,5.7-11.7,8.5-20.5,8.5c-5.7,0-9.5-1.4-11.4-4.1s-3.4-6.6-4.4-11.8
		c-0.8-3.3-1.5-5.8-2.3-7.3c-0.8-1.5-2.2-2.3-4.3-2.3c-5.4,0-10,1.1-13.7,3.3c-3.7,2.2-8.6,6-14.5,11.4L831.3,389h-55.7L816.6,195.8
		z"/>
	<path class="st10" d="M1136.1,378.8c-7.3-8.4-11-18.7-11-31.1c0-5.4,0.6-11.5,1.9-18.4c1.3-6.8,2.6-13.5,4.1-19.9
		c1.4-6.4,2.4-10.6,2.9-12.4c2.1-9,4-17.9,5.8-26.7c1.8-8.8,2.7-15.8,2.7-21.3c0-13.1-4.6-19.7-13.9-19.7c-6.7,0-12.6,3.3-17.8,9.9
		c-5.2,6.6-9.3,15.1-12.4,25.7L1072.1,389h-55.7l28.2-133.3c0.8-3.1,1.2-6.3,1.2-9.7c0-11.3-3.9-17-11.6-17
		c-7.2,0-13.5,3.3-18.7,9.9c-5.3,6.6-9.5,15.3-12.6,26.1L976.6,389H921l41-193.2h55.7l-4.3,20.1c13.1-14.7,28.9-22,47.2-22
		c22.7,0,35.9,11.1,39.8,33.2c14.2-21.9,32.1-32.9,53.7-32.9c13.1,0,23.6,3.6,31.3,10.8c7.7,7.2,11.6,18.2,11.6,32.9
		c0,7.5-0.9,15.8-2.7,24.9c-1.8,9.1-4.4,20.3-7.7,33.4c-2.1,8-3.9,15.8-5.6,23.4c-1.7,7.6-2.5,13.6-2.5,18c0,5.2,1.2,9.1,3.5,12
		c2.3,2.8,6.3,4.3,12,4.3c7.7,0,13.9-2.8,18.6-8.3c4.6-5.5,9.3-14.1,13.9-25.7h16.2c-9.5,28.3-20.6,47.3-33,57
		c-12.5,9.7-25.4,14.5-38.8,14.5C1154.9,391.3,1143.4,387.1,1136.1,378.8z"/>
	<path class="st10" d="M1236,376.3c-9.8-10-14.7-25.8-14.7-47.2c0-19.1,3.8-39.1,11.4-60.1c7.6-21,18.9-38.8,34-53.3
		c15.1-14.6,33-21.8,53.9-21.8c10.6,0,18.4,1.8,23.6,5.4c5.2,3.6,7.7,8.4,7.7,14.3v2.7l4.3-20.5h55.7L1384,327.2
		c-1,3.9-1.5,8-1.5,12.4c0,5.2,1.2,8.8,3.7,11c2.4,2.2,6.5,3.3,12.2,3.3c3.6,0,6.4-0.5,8.5-1.5c-5.7,14.4-11.1,24.5-16.2,30.3
		c-5.2,5.8-12.6,8.7-22.4,8.7c-10.6,0-19.1-3.2-25.7-9.5c-6.6-6.3-10.6-15.1-12.2-26.5c-15.7,24-34.9,35.9-57.6,35.9
		C1258,391.3,1245.8,386.3,1236,376.3z M1316.9,344.8c6.3-6.1,10.6-14.4,12.9-24.9l18.6-87.3c0-3.3-1.3-6.6-3.9-9.9
		c-2.6-3.2-6.6-4.8-12-4.8c-10.3,0-19.6,6-27.8,18c-8.2,12-14.7,26.4-19.3,43.3c-4.6,16.9-7,31.8-7,44.6c0,12.9,1.9,21.1,5.6,24.7
		c3.7,3.6,8.3,5.4,13.7,5.4C1304.3,353.8,1310.6,350.8,1316.9,344.8z"/>
	<path class="st10" d="M1421.1,272.7h77.3l-6.6,30.5h-77.7L1421.1,272.7z"/>
	<path class="st10" d="M1570.7,387.5c-12.4-5.7-21.9-13.6-28.6-23.8c-6.7-10.2-10-22-10-35.4c0-11.3,2.4-21.6,7.2-30.9
		c4.8-9.3,11.2-16.6,19.3-22c8.1-5.4,17.1-8.1,26.9-8.1c9,0,16.6,2.3,22.8,6.8c6.2,4.5,10,10.8,11.6,18.7
		c-13.4,0-24.1,3.5-32.1,10.6c-8,7.1-12,16.7-12,28.8c0,11.1,3.3,20,10,26.7c6.7,6.7,15.6,10,26.7,10c13.7,0,24.9-4.6,33.8-13.7
		c8.9-9.1,13.3-20.7,13.3-34.6c0-12.1-3.4-23.6-10-34.4c-6.7-10.8-16.8-24-30.1-39.4c-13.9-16-24.4-29.7-31.5-41.2
		c-7.1-11.5-10.6-24-10.6-37.7c0-13.4,3.7-25.4,11.2-36.1c7.5-10.7,17.8-19.1,30.9-25.3s28-9.3,44.4-9.3c20.9,0,37.5,4.9,50.1,14.7
		c12.5,9.8,18.7,22.9,18.7,39.4c0,10.8-2.7,19.6-8.1,26.3c-5.4,6.7-12.5,10-21.3,10c-9.8,0-17.7-4-23.6-12
		c4.9-3.6,8.8-8.4,11.6-14.3c2.8-5.9,4.3-12.1,4.3-18.6c0-8.2-2.5-14.8-7.3-19.7c-4.9-4.9-11.6-7.3-20.1-7.3
		c-10.3,0-18.7,3.7-25.3,11c-6.6,7.3-9.9,16.7-9.9,28c0,10.3,3,19.9,8.9,28.8c5.9,8.9,15.2,20.3,27.8,34.2
		c10.3,11.1,18.6,20.6,24.9,28.6c6.3,8,11.7,17.2,16.2,27.6c4.5,10.4,6.8,21.7,6.8,33.8c0,16.5-4.6,31.4-13.7,44.8
		c-9.1,13.4-21.6,24-37.5,31.7c-15.8,7.7-33.4,11.6-52.8,11.6C1597.3,396,1583,393.1,1570.7,387.5z"/>
	<path class="st10" d="M1844.1,378.8c-7.3-8.4-11-18.7-11-31.1c0-5.4,0.6-11.5,1.9-18.4c1.3-6.8,2.6-13.5,4.1-19.9
		c1.4-6.4,2.4-10.6,2.9-12.4c2.1-9,4-17.9,5.8-26.7c1.8-8.8,2.7-15.8,2.7-21.3c0-13.1-4.6-19.7-13.9-19.7c-6.7,0-12.6,3.3-17.8,9.9
		c-5.2,6.6-9.3,15.1-12.4,25.7L1780.1,389h-55.7l56-262.8l57.2-7.7l-20.9,97.4c12.9-14.4,28-21.6,45.2-21.6
		c13.1,0,23.6,3.6,31.3,10.8c7.7,7.2,11.6,18.2,11.6,32.9c0,7.5-0.9,15.8-2.7,24.9c-1.8,9.1-4.4,20.3-7.7,33.4
		c-2.1,8-3.9,15.8-5.6,23.4c-1.7,7.6-2.5,13.6-2.5,18c0,5.2,1.2,9.1,3.5,12c2.3,2.8,6.3,4.3,12,4.3c7.7,0,13.9-2.8,18.6-8.3
		c4.6-5.5,9.3-14.1,13.9-25.7h16.2c-9.5,28.3-20.5,47.3-33,57c-12.5,9.7-25.4,14.5-38.8,14.5C1863,391.3,1851.5,387.1,1844.1,378.8z
		"/>
	<path class="st10" d="M1945.6,375.9c-11.1-9.8-16.6-25.2-16.6-46.4c0-17.5,3.6-37,10.8-58.4c7.2-21.4,18.8-39.9,34.8-55.5
		c16-15.6,36.1-23.4,60.3-23.4c33,0,49.5,20.6,49.5,61.8v0.4c0.8,0.3,2.2,0.4,4.3,0.4c8.5,0,18.3-2.3,29.4-6.8
		c11.1-4.5,21.1-10,30.1-16.4l3.5,10.4c-7.5,8-17.2,14.8-29.2,20.3c-12,5.5-25.1,9.5-39.2,11.8c-2.1,23.4-7.3,43.9-15.8,61.5
		c-8.5,17.5-19.5,31.1-32.9,40.6c-13.4,9.5-28,14.3-43.7,14.3C1971.7,390.6,1956.6,385.7,1945.6,375.9z M2024.8,345.1
		c6.2-7.1,11.6-16.7,16.2-29c4.6-12.2,8-25.8,10-40.8c-7-1.5-10.4-7-10.4-16.2c0-10.6,4-17.5,12-20.9c-0.5-8.5-1.8-14.4-3.9-17.6
		c-2.1-3.2-5.7-4.8-10.8-4.8c-8.5,0-16.8,6.2-24.7,18.6c-8,12.4-14.4,27.2-19.3,44.4c-4.9,17.3-7.3,32.5-7.3,45.6
		c0,12.4,1.4,20.7,4.3,24.9c2.8,4.3,8,6.4,15.5,6.4C2012.4,355.8,2018.6,352.2,2024.8,345.1z"/>
	<path class="st10" d="M2133.4,181.5h55.7l-6.2,29c12.9-11.1,28-16.6,45.2-16.6c14.4,0,25.9,4.8,34.4,14.3
		c8.5,9.5,12.8,25.1,12.8,46.8c0,20.4-3,40.9-8.9,61.6c-5.9,20.7-16,38.4-30.1,52.9c-14.2,14.6-32.9,21.8-56,21.8
		c-16.5,0-27.4-4.6-32.9-13.9l-20.1,94.3l-58.4,13.9L2133.4,181.5z M2198.9,340.3c8.1-11.6,14-25.4,17.8-41.5
		c3.7-16.1,5.6-31.1,5.6-45c0-21.4-6.4-32.1-19.3-32.1c-4.6,0-9.3,1.7-14.1,5c-4.8,3.4-9,8-12.6,13.9l-22.8,108.2
		c2.1,5.9,7,8.9,14.7,8.9C2180.5,357.7,2190.8,351.9,2198.9,340.3z"/>
</g>
</svg>
